<svg xmlns="http://www.w3.org/2000/svg" width="20.46" height="21.2" viewBox="0 0 20.46 21.2">
    <g id="information_1_" data-name="information (1)" transform="translate(-8.941)">
        <g id="Group_30" data-name="Group 30" transform="translate(8.941)">
            <g id="Group_29" data-name="Group 29">
                <path id="Path_42" data-name="Path 42" d="M225.091,74.832a1.565,1.565,0,1,0-1.565-1.565A1.566,1.566,0,0,0,225.091,74.832Zm0-2.508a.943.943,0,1,1-.943.943A.945.945,0,0,1,225.091,72.324Z" transform="translate(-214.641 -68.734)" fill="#717070"/>
                <path id="Path_43" data-name="Path 43" d="M13.494,17.971A9.752,9.752,0,0,1,10.619,14.6,9.6,9.6,0,0,1,19.17.621a9.418,9.418,0,0,1,4.3,1.031.311.311,0,1,0,.281-.554A10.033,10.033,0,0,0,19.17,0a10.22,10.22,0,0,0-9.1,14.883,10.378,10.378,0,0,0,3.058,3.588.311.311,0,0,0,.368-.5Z" transform="translate(-8.941 0)" fill="#717070"/>
                <path id="Path_44" data-name="Path 44" d="M150.441,59.683a10.2,10.2,0,0,0-1.955-14.843.311.311,0,0,0-.362.5,9.582,9.582,0,0,1,1.839,13.942,3.486,3.486,0,0,0-.749,1.575,3.714,3.714,0,0,0,.05,1.82.625.625,0,0,1-.15.635.607.607,0,0,1-.613.164,8.555,8.555,0,0,1-1.883-.809,2.139,2.139,0,0,0-1.624-.217,9.649,9.649,0,0,1-2.532.31,9.457,9.457,0,0,1-4.344-1.095.311.311,0,0,0-.289.55,10.072,10.072,0,0,0,4.627,1.166,10.272,10.272,0,0,0,2.7-.33,1.522,1.522,0,0,1,1.156.153,9.183,9.183,0,0,0,2.022.868,1.261,1.261,0,0,0,.351.05,1.22,1.22,0,0,0,.88-.378,1.253,1.253,0,0,0,.3-1.257,3,3,0,0,1-.031-1.517A2.865,2.865,0,0,1,150.441,59.683Z" transform="translate(-132.333 -42.927)" fill="#717070"/>
                <path id="Path_45" data-name="Path 45" d="M183.8,174.2v.312a1.077,1.077,0,0,0,1.076,1.076h4.267a1.077,1.077,0,0,0,1.076-1.076V174.2a1.077,1.077,0,0,0-1.076-1.076h-.569v-5.965a1.058,1.058,0,0,0-1.474-.973,4.694,4.694,0,0,1-1.617.373l-.979.049a.74.74,0,0,0-.7.739v.612a.741.741,0,0,0,.74.74h.859a.046.046,0,0,1,.046.046v4.378h-.569A1.077,1.077,0,0,0,183.8,174.2Zm1.955-.455a.311.311,0,0,0,.311-.311v-4.689a.667.667,0,0,0-.667-.667h-.859a.119.119,0,0,1-.119-.119v-.612a.119.119,0,0,1,.113-.119l.979-.049a5.313,5.313,0,0,0,1.83-.422.437.437,0,0,1,.609.4v6.275a.311.311,0,0,0,.311.311h.879a.456.456,0,0,1,.455.455v.312a.456.456,0,0,1-.455.455h-4.267a.456.456,0,0,1-.455-.455V174.2a.456.456,0,0,1,.455-.455Z" transform="translate(-176.559 -159.226)" fill="#717070"/>
            </g>
        </g>
    </g>
</svg>
