<svg xmlns="http://www.w3.org/2000/svg" width="21.368" height="21.369" viewBox="0 0 21.368 21.369">
    <g id="correct" transform="translate(-0.008 0)">
        <path id="Path_32" data-name="Path 32" d="M21.31,10.482l-1.6-2.214L19.99,5.55a.345.345,0,0,0-.2-.351l-2.5-1.112-1.112-2.5a.347.347,0,0,0-.351-.2l-2.719.284L10.894.066a.345.345,0,0,0-.4,0l-2.214,1.6L5.557,1.386a.349.349,0,0,0-.351.2l-1.112,2.5L1.6,5.2a.344.344,0,0,0-.2.351l.284,2.719-1.6,2.214a.345.345,0,0,0,0,.4l1.6,2.214L1.394,15.82a.345.345,0,0,0,.2.351l2.5,1.112,1.112,2.5a.348.348,0,0,0,.351.2L8.276,19.7l2.214,1.6a.345.345,0,0,0,.4,0l2.214-1.6,2.719.284a.347.347,0,0,0,.351-.2l1.112-2.5,2.5-1.112a.345.345,0,0,0,.2-.351L19.705,13.1l1.6-2.214a.345.345,0,0,0,0-.4ZM19.07,12.8a.344.344,0,0,0-.064.238l.272,2.6-2.39,1.064a.342.342,0,0,0-.175.175l-1.063,2.39L13.047,19a.344.344,0,0,0-.238.064L10.692,20.6,8.573,19.063a.341.341,0,0,0-.2-.066.225.225,0,0,0-.034,0l-2.6.272-1.063-2.39a.344.344,0,0,0-.175-.175L2.105,15.642l.272-2.6a.346.346,0,0,0-.064-.238L.778,10.684,2.313,8.566a.346.346,0,0,0,.064-.238l-.272-2.6L4.5,4.663a.342.342,0,0,0,.175-.175L5.734,2.1l2.6.272a.348.348,0,0,0,.238-.064L10.692.771,12.81,2.306a.346.346,0,0,0,.238.064l2.6-.272,1.063,2.39a.344.344,0,0,0,.175.175l2.39,1.064-.272,2.6a.344.344,0,0,0,.064.238l1.535,2.118Zm0,0" fill="#717070"/>
        <path id="Path_33" data-name="Path 33" d="M133.423,155.066a.345.345,0,0,0-.487,0l-5.6,5.6-1.707-1.7a.345.345,0,0,0-.487,0l-.977.971a.345.345,0,0,0,0,.488l2.926,2.926a.345.345,0,0,0,.487,0l6.824-6.824a.345.345,0,0,0,0-.487Zm-6.092,7.556-2.438-2.438.487-.486,1.708,1.7a.345.345,0,0,0,.487,0l5.6-5.6.488.488Zm0,0" transform="translate(-118.707 -148.289)" fill="#717070"/>
    </g>
</svg>
