<svg xmlns="http://www.w3.org/2000/svg" width="27.283" height="27.01" viewBox="0 0 27.283 27.01">
    <g id="target-audience" transform="translate(0)">
        <path id="Path_25" data-name="Path 25" d="M151.2,127.263v.475a.368.368,0,0,0,.179.31,10.178,10.178,0,0,0,1.53.792.437.437,0,0,0,.553-.186.364.364,0,0,0-.206-.5,9.332,9.332,0,0,1-1.221-.615v-.275a4.783,4.783,0,0,1,5-4.522,5.245,5.245,0,0,1,3.535,1.324,4.287,4.287,0,0,1,1.463,3.2v.275a9.69,9.69,0,0,1-5,1.359,9.989,9.989,0,0,1-2.037-.208.42.42,0,0,0-.5.283.378.378,0,0,0,.313.453,10.912,10.912,0,0,0,2.225.228,10.561,10.561,0,0,0,5.655-1.6.369.369,0,0,0,.179-.31v-.475a5,5,0,0,0-1.708-3.732,5.928,5.928,0,0,0-2.178-1.245,3.676,3.676,0,0,0,1.939-2.3.377.377,0,0,0-.306-.457.422.422,0,0,0-.5.277,3.113,3.113,0,0,1-3.075,2.181,2.879,2.879,0,1,1,0-5.73,3.145,3.145,0,0,1,3.05,2.094.424.424,0,0,0,.514.262.375.375,0,0,0,.29-.465,3.975,3.975,0,0,0-3.855-2.646,3.83,3.83,0,0,0-4,3.621,3.586,3.586,0,0,0,2.062,3.165A5.351,5.351,0,0,0,151.2,127.263Z" transform="translate(-143.391 -109.071)" fill="#717070"/>
        <path id="Path_26" data-name="Path 26" d="M26.084,12.318h-1.45A10.9,10.9,0,0,0,21.46,5.765a11.1,11.1,0,0,0-6.62-3.142V1.187a1.2,1.2,0,0,0-2.4,0V2.623a11.021,11.021,0,0,0-7.925,4.7.393.393,0,0,0,.1.55.4.4,0,0,0,.556-.1,10.223,10.223,0,0,1,7.266-4.347v.933a1.2,1.2,0,0,0,2.4,0V3.419a10.267,10.267,0,0,1,8.989,8.9h-.943a1.187,1.187,0,1,0,0,2.374h.943a10.267,10.267,0,0,1-8.989,8.9v-.933a1.2,1.2,0,0,0-2.4,0v.933a10.267,10.267,0,0,1-8.989-8.9H4.4a1.187,1.187,0,1,0,0-2.374H3.453a9.988,9.988,0,0,1,.792-2.892A.394.394,0,0,0,4.04,8.9a.4.4,0,0,0-.527.2,10.771,10.771,0,0,0-.864,3.21H1.2a1.187,1.187,0,1,0,0,2.374h1.45a10.9,10.9,0,0,0,3.174,6.553,11.1,11.1,0,0,0,6.62,3.142v1.436a1.2,1.2,0,0,0,2.4,0V24.387a11.1,11.1,0,0,0,6.62-3.142,10.9,10.9,0,0,0,3.174-6.553h1.45a1.187,1.187,0,1,0,0-2.374ZM14.041,4.352a.4.4,0,0,1-.8,0V1.187a.4.4,0,0,1,.8,0ZM.8,13.505a.4.4,0,0,1,.4-.4H4.4a.4.4,0,1,1,0,.791H1.2A.4.4,0,0,1,.8,13.505ZM14.041,25.823a.4.4,0,0,1-.8,0V22.658a.4.4,0,0,1,.8,0ZM26.084,13.9h-3.2a.4.4,0,1,1,0-.791h3.2a.4.4,0,1,1,0,.791Z" fill="#717070"/>
    </g>
</svg>
