<svg xmlns="http://www.w3.org/2000/svg" width="26.347" height="25.028" viewBox="0 0 26.347 25.028">
    <g id="contact" transform="translate(-0.001 -12.813)">
        <g id="Group_32" data-name="Group 32" transform="translate(0.001 12.813)">
            <g id="Group_31" data-name="Group 31">
                <path id="Path_47" data-name="Path 47" d="M25.228,12.813H6.825a1.121,1.121,0,0,0-1.12,1.12v5.076l-.842-1.262a1.3,1.3,0,0,0-1.757-.4L1.375,18.393A2.54,2.54,0,0,0,.214,19.9C-.417,22.2.051,26.16,5.867,31.977c4.625,4.62,8.073,5.865,10.45,5.865a6.136,6.136,0,0,0,1.63-.213,2.545,2.545,0,0,0,1.506-1.159l1.04-1.733a1.3,1.3,0,0,0-.4-1.755l-4.146-2.764A1.308,1.308,0,0,0,14.2,30.5l-1.207,1.552a.42.42,0,0,1-.538.114l-.23-.127a13.808,13.808,0,0,1-3.6-2.825c-.206-.206-.392-.4-.567-.582H25.228a1.119,1.119,0,0,0,1.12-1.115V13.933A1.121,1.121,0,0,0,25.228,12.813Zm-13.424,20,.223.123a1.294,1.294,0,0,0,1.658-.342l1.207-1.552a.427.427,0,0,1,.571-.093l4.146,2.764a.424.424,0,0,1,.129.571L18.7,36.017a1.669,1.669,0,0,1-.984.764c-2.076.571-5.71.088-11.225-5.428S.493,22.2,1.063,20.13a1.669,1.669,0,0,1,.764-.984l1.733-1.04a.425.425,0,0,1,.571.129L6.9,22.38a.426.426,0,0,1-.093.571L5.251,24.159a1.294,1.294,0,0,0-.342,1.658l.123.223a14.561,14.561,0,0,0,2.975,3.8A14.59,14.59,0,0,0,11.8,32.813ZM25.47,27.519a.24.24,0,0,1-.242.237H7.269A11.077,11.077,0,0,1,5.8,25.62l-.127-.231a.419.419,0,0,1,.113-.537l1.552-1.207a1.308,1.308,0,0,0,.284-1.752L6.583,20.327V13.933a.239.239,0,0,1,.242-.242h18.4a.239.239,0,0,1,.242.242V27.519Z" transform="translate(-0.001 -12.813)" fill="#717070"/>
                <path id="Path_48" data-name="Path 48" d="M164.394,50.677l-7.341,5.567a.593.593,0,0,1-.7,0l-7.338-5.567a.439.439,0,0,0-.531.7l7.339,5.567a1.478,1.478,0,0,0,1.757,0l7.341-5.567a.439.439,0,0,0-.531-.7Z" transform="translate(-140.68 -48.643)" fill="#717070"/>
                <path id="Path_49" data-name="Path 49" d="M153.427,172.534l-4.5,4.818a.439.439,0,1,0,.643.6l4.5-4.821a.439.439,0,0,0-.643-.6Z" transform="translate(-141.15 -164.196)" fill="#717070"/>
                <path id="Path_50" data-name="Path 50" d="M370.712,172.218a.439.439,0,0,0-.643.6l4.5,4.818a.439.439,0,0,0,.643-.6Z" transform="translate(-350.909 -163.881)" fill="#717070"/>
            </g>
        </g>
    </g>
</svg>
