<svg xmlns="http://www.w3.org/2000/svg" width="22.076" height="13.59" viewBox="0 0 22.076 13.59">
    <g id="ticket" transform="translate(0 -98.403)">
        <g id="Group_28" data-name="Group 28" transform="translate(0 98.403)">
            <g id="Group_27" data-name="Group 27">
                <path id="Path_34" data-name="Path 34" d="M22.066,108.012l-.259-2.173a.431.431,0,0,0-.472-.378,1.59,1.59,0,0,1-.377-3.157.431.431,0,0,0,.37-.478l-.259-2.173a1.416,1.416,0,0,0-1.573-1.238L4.35,100.221a1.406,1.406,0,0,0-.938.522h-2A1.417,1.417,0,0,0,0,102.158v2.189a.431.431,0,0,0,.424.431,1.59,1.59,0,0,1,0,3.18.431.431,0,0,0-.424.431v2.189a1.417,1.417,0,0,0,1.416,1.416H16.668a1.417,1.417,0,0,0,1.416-1.416v-.665l2.745-.328a1.416,1.416,0,0,0,1.238-1.573Zm-4.845,1.135v1.431a.554.554,0,0,1-.553.553H13.995v-.808a.431.431,0,1,0-.862,0v.808H1.416a.554.554,0,0,1-.553-.553v-1.8a2.438,2.438,0,0,0,1.282-.688,2.452,2.452,0,0,0,0-3.441,2.438,2.438,0,0,0-1.282-.688v-1.8a.554.554,0,0,1,.553-.553H13.132v5.251a.431.431,0,1,0,.862,0v-5.25h2.673a.554.554,0,0,1,.553.553v1.8a2.453,2.453,0,0,0,0,4.817v.37Zm3.874-.626a.55.55,0,0,1-.369.207l-2.642.315v-.655a.431.431,0,0,0-.424-.431,1.59,1.59,0,0,1,0-3.18.431.431,0,0,0,.424-.431v-2.189a1.417,1.417,0,0,0-1.416-1.416H7.257L19.6,99.27a.553.553,0,0,1,.615.484l.214,1.789A2.453,2.453,0,0,0,21,106.325l.214,1.789A.55.55,0,0,1,21.1,108.522Z" transform="translate(0 -98.403)" fill="#fff"/>
                <path id="Path_35" data-name="Path 35" d="M305.4,324.909a.442.442,0,0,0-.04-.074.415.415,0,0,0-.053-.065.433.433,0,0,0-.065-.053.428.428,0,0,0-.075-.04.434.434,0,0,0-.081-.025.423.423,0,0,0-.249.025.438.438,0,0,0-.14.093.414.414,0,0,0-.054.065.442.442,0,0,0-.04.074.45.45,0,0,0-.025.081.437.437,0,0,0,0,.168.435.435,0,0,0,.025.081.428.428,0,0,0,.04.075.426.426,0,0,0,.119.119.437.437,0,0,0,.074.04.411.411,0,0,0,.081.025.416.416,0,0,0,.169,0,.4.4,0,0,0,.081-.025.461.461,0,0,0,.075-.04.436.436,0,0,0,.065-.053.414.414,0,0,0,.053-.066.425.425,0,0,0,.064-.323A.445.445,0,0,0,305.4,324.909Z" transform="translate(-291.436 -314.889)" fill="#fff"/>
                <path id="Path_36" data-name="Path 36" d="M94.841,207.74l-1.894-.275-.847-1.716a.431.431,0,0,0-.773,0l-.745,1.51-.1.206-.717.1-1.177.171a.431.431,0,0,0-.239.735l1.141,1.112.23.224-.13.76-.193,1.126a.431.431,0,0,0,.626.455l1.694-.891,1.694.891a.431.431,0,0,0,.626-.455l-.324-1.886,1.371-1.336a.431.431,0,0,0-.239-.735Zm-1.9,1.612a.431.431,0,0,0-.124.382l.214,1.249-1.121-.59a.431.431,0,0,0-.4,0l-1.121.59.214-1.249a.436.436,0,0,0-.124-.382l-.531-.518-.376-.366.433-.063.82-.119.038-.008a.431.431,0,0,0,.287-.228l.561-1.136.561,1.136a.431.431,0,0,0,.325.236l1.254.182Z" transform="translate(-84.412 -200.89)" fill="#fff"/>
            </g>
        </g>
    </g>
</svg>
