<svg xmlns="http://www.w3.org/2000/svg" width="22.571" height="22.571" viewBox="0 0 22.571 22.571">
    <g id="instagram" transform="translate(0.001)">
        <path id="Path_51" data-name="Path 51" d="M16.46,0H6.109A6.117,6.117,0,0,0,0,6.11V16.461a6.117,6.117,0,0,0,6.11,6.11H16.46a6.117,6.117,0,0,0,6.11-6.11V6.11A6.117,6.117,0,0,0,16.46,0Zm4.787,16.461a4.792,4.792,0,0,1-4.787,4.786H6.109a4.792,4.792,0,0,1-4.787-4.786V6.11A4.792,4.792,0,0,1,6.109,1.323H16.46A4.792,4.792,0,0,1,21.247,6.11Zm0,0" fill="#717070"/>
        <path id="Path_52" data-name="Path 52" d="M122.176,116a6.172,6.172,0,1,0,6.172,6.172A6.179,6.179,0,0,0,122.176,116Zm0,11.02a4.848,4.848,0,1,1,4.848-4.848A4.854,4.854,0,0,1,122.176,127.024Zm0,0" transform="translate(-110.891 -110.89)" fill="#717070"/>
        <path id="Path_53" data-name="Path 53" d="M359.8,66.285a1.824,1.824,0,1,0,1.824,1.824A1.826,1.826,0,0,0,359.8,66.285Zm0,2.324a.5.5,0,1,1,.5-.5A.5.5,0,0,1,359.8,68.609Zm0,0" transform="translate(-342.197 -63.363)" fill="#717070"/>
    </g>
</svg>
