<svg id="about" xmlns="http://www.w3.org/2000/svg" width="17.921" height="17.921" viewBox="0 0 17.921 17.921">
    <path id="Path_39" data-name="Path 39" d="M8.96,17.921a8.96,8.96,0,0,1-6.336-15.3A8.96,8.96,0,0,1,15.3,15.3,8.9,8.9,0,0,1,8.96,17.921Zm0-16.8A7.84,7.84,0,1,0,16.8,8.96,7.849,7.849,0,0,0,8.96,1.12Z" fill="#717070"/>
    <path id="Path_40" data-name="Path 40" d="M178.8,105.52a.56.56,0,0,1-.56-.56,5.257,5.257,0,0,1,1.55-3.742,3.29,3.29,0,0,0,.97-2.342A1.758,1.758,0,0,0,179,97.12h-.128a1.758,1.758,0,0,0-1.756,1.756v.2a.56.56,0,1,1-1.12,0v-.2A2.88,2.88,0,0,1,178.876,96H179a2.88,2.88,0,0,1,2.876,2.876,4.4,4.4,0,0,1-1.3,3.134,4.144,4.144,0,0,0-1.222,2.95A.56.56,0,0,1,178.8,105.52Z" transform="translate(-169.84 -92.64)" fill="#717070"/>
    <path id="Path_41" data-name="Path 41" d="M240.575,401.12a.56.56,0,0,1,0-1.12h0a.56.56,0,1,1,0,1.12Z" transform="translate(-231.614 -386)" fill="#717070"/>
</svg>
