<svg xmlns="http://www.w3.org/2000/svg" width="18.945" height="29.283" viewBox="0 0 18.945 29.283">
    <g id="yellow-card" transform="translate(-90.375)">
        <path id="Path_46" data-name="Path 46" d="M106.231,18.667a.429.429,0,1,0,.45-.731l-.371-.228a1.776,1.776,0,0,1-.671-.741,2.791,2.791,0,0,0,.34-1.338V2.212A2.215,2.215,0,0,0,103.767,0H92.587a2.214,2.214,0,0,0-2.212,2.212v7.956a.429.429,0,1,0,.858,0V2.212A1.356,1.356,0,0,1,92.587.858h11.18a1.356,1.356,0,0,1,1.354,1.354V15L103.774,9.42a1.666,1.666,0,0,0-2.485-1.031,2.791,2.791,0,0,0-1.341,2.572l.339,5.262a1.945,1.945,0,0,1-.429,1.354H92.587a1.356,1.356,0,0,1-1.354-1.354V11.884a.429.429,0,1,0-.858,0v4.338a2.214,2.214,0,0,0,2.212,2.212h1.254a1.726,1.726,0,0,0,1.429,2.593,1.727,1.727,0,0,0,1.492,2.6h.944a6.4,6.4,0,0,0,.738,2.085l.014.024a2.828,2.828,0,0,1,.364,1.387v1.735a.429.429,0,1,0,.858,0V27.119a3.689,3.689,0,0,0-.475-1.809l-.014-.024a5.57,5.57,0,0,1,.673-6.415l.582-.66a2.8,2.8,0,0,0,.7-2.044l-.339-5.262a1.935,1.935,0,0,1,.93-1.784.809.809,0,0,1,1.206.5l1.735,7.186a2.63,2.63,0,0,0,1.185,1.632Zm-8.611,4.1h-.859a.868.868,0,1,1,0-1.736H97.8a6.447,6.447,0,0,0-.18,1.736Zm.454-2.594H95.333a.868.868,0,0,1,0-1.736H99.11A6.406,6.406,0,0,0,98.074,20.171Zm10.344-4.83-.757-1.049a.429.429,0,1,0-.694.5l.757,1.049a3.875,3.875,0,0,1,.507,3.6c-.051.141-2.393,6.524-2.387,6.668v2.745a.429.429,0,1,0,.858,0v-2.67l2.335-6.451A4.732,4.732,0,0,0,108.418,15.341ZM98.177,12.274a1.35,1.35,0,1,0,1.35,1.35A1.351,1.351,0,0,0,98.177,12.274Zm0,1.842a.492.492,0,1,1,.492-.492A.493.493,0,0,1,98.177,14.116Zm0-10.655a1.569,1.569,0,0,0-1.552,1.713l.53,5.356a1.027,1.027,0,0,0,2.043,0l.53-5.356A1.575,1.575,0,0,0,98.177,3.461Zm.7,1.628-.53,5.356a.169.169,0,0,1-.336,0l-.53-5.356a.7.7,0,1,1,1.4,0Z" fill="#717070"/>
    </g>
</svg>
