<svg xmlns="http://www.w3.org/2000/svg" width="20.048" height="25.537" viewBox="0 0 20.048 25.537">
    <g id="badge" transform="translate(-9.521 -1.994)">
        <path id="Path_27" data-name="Path 27" d="M17.225,22.044A1.377,1.377,0,0,1,16.872,22a2.6,2.6,0,0,1-1.29-1.129,2.8,2.8,0,0,0-.7-.766,2.83,2.83,0,0,0-1.034-.234,2.55,2.55,0,0,1-1.6-.547,2.566,2.566,0,0,1-.547-1.6,2.839,2.839,0,0,0-.233-1.034,2.809,2.809,0,0,0-.766-.7,2.6,2.6,0,0,1-1.129-1.29,2.525,2.525,0,0,1,.326-1.636,2.932,2.932,0,0,0,.32-1.037,2.932,2.932,0,0,0-.32-1.037,2.524,2.524,0,0,1-.326-1.636,2.6,2.6,0,0,1,1.129-1.29,2.809,2.809,0,0,0,.766-.7,2.84,2.84,0,0,0,.234-1.034,2.551,2.551,0,0,1,.547-1.6,2.566,2.566,0,0,1,1.6-.547,2.83,2.83,0,0,0,1.034-.234,2.8,2.8,0,0,0,.7-.766A2.6,2.6,0,0,1,16.872,2.04a2.524,2.524,0,0,1,1.636.326,2.932,2.932,0,0,0,1.037.323,2.933,2.933,0,0,0,1.037-.32,2.528,2.528,0,0,1,1.636-.326,2.6,2.6,0,0,1,1.29,1.131,2.806,2.806,0,0,0,.7.766,2.831,2.831,0,0,0,1.034.234,2.552,2.552,0,0,1,1.6.547,2.565,2.565,0,0,1,.547,1.6,2.843,2.843,0,0,0,.233,1.034,2.813,2.813,0,0,0,.766.7,2.6,2.6,0,0,1,1.129,1.29,2.525,2.525,0,0,1-.326,1.636,2.929,2.929,0,0,0-.32,1.037,2.932,2.932,0,0,0,.32,1.037,2.524,2.524,0,0,1,.326,1.636,2.6,2.6,0,0,1-1.129,1.29,2.8,2.8,0,0,0-.766.7,2.838,2.838,0,0,0-.234,1.034,2.551,2.551,0,0,1-.547,1.6,2.566,2.566,0,0,1-1.6.547,2.831,2.831,0,0,0-1.034.234,2.8,2.8,0,0,0-.7.766A2.6,2.6,0,0,1,22.218,22a2.538,2.538,0,0,1-1.636-.326,2.933,2.933,0,0,0-1.037-.325,2.933,2.933,0,0,0-1.037.32A3.336,3.336,0,0,1,17.225,22.044Zm2.32-1.423a3.422,3.422,0,0,1,1.33.381,2.064,2.064,0,0,0,1.155.292c.328-.088.6-.46.889-.855a3.315,3.315,0,0,1,.927-.969,3.364,3.364,0,0,1,1.318-.328,2.062,2.062,0,0,0,1.167-.337,2.064,2.064,0,0,0,.337-1.167A3.356,3.356,0,0,1,27,16.319a3.32,3.32,0,0,1,.967-.927c.395-.289.766-.562.855-.889a2.04,2.04,0,0,0-.292-1.155,3.422,3.422,0,0,1-.382-1.33,3.413,3.413,0,0,1,.382-1.33,2.048,2.048,0,0,0,.29-1.155c-.087-.328-.46-.6-.855-.889a3.319,3.319,0,0,1-.967-.927A3.356,3.356,0,0,1,26.666,6.4a2.059,2.059,0,0,0-.337-1.167,2.067,2.067,0,0,0-1.167-.337,3.364,3.364,0,0,1-1.318-.328,3.32,3.32,0,0,1-.925-.965c-.289-.395-.562-.766-.889-.855a2.039,2.039,0,0,0-1.155.292,3.421,3.421,0,0,1-1.33.381,3.421,3.421,0,0,1-1.33-.383,2.048,2.048,0,0,0-1.155-.29c-.328.087-.6.46-.889.855a3.32,3.32,0,0,1-.927.967,3.364,3.364,0,0,1-1.318.328,2.059,2.059,0,0,0-1.167.337A2.067,2.067,0,0,0,12.421,6.4a3.359,3.359,0,0,1-.328,1.319,3.32,3.32,0,0,1-.967.927c-.4.289-.768.562-.855.889a2.04,2.04,0,0,0,.292,1.155,3.422,3.422,0,0,1,.382,1.33,3.416,3.416,0,0,1-.382,1.33,2.048,2.048,0,0,0-.29,1.155c.087.328.46.6.855.889a3.321,3.321,0,0,1,.967.927,3.358,3.358,0,0,1,.328,1.318,2.059,2.059,0,0,0,.337,1.167,2.067,2.067,0,0,0,1.167.337,3.371,3.371,0,0,1,1.318.328,3.323,3.323,0,0,1,.927.967c.289.395.562.766.889.855A2.032,2.032,0,0,0,18.217,21a3.422,3.422,0,0,1,1.328-.38Z" transform="translate(0 0)" fill="#717070"/>
        <path id="Path_28" data-name="Path 28" d="M24.8,24.282a7,7,0,1,1,7-7,7,7,0,0,1-7,7Zm0-13.276a6.274,6.274,0,1,0,6.274,6.274A6.274,6.274,0,0,0,24.8,11.006Z" transform="translate(-5.259 -5.259)" fill="#717070"/>
        <path id="Path_29" data-name="Path 29" d="M32.533,25.742a.365.365,0,0,1-.17-.042l-1.937-1.018L28.49,25.7a.365.365,0,0,1-.529-.386l.37-2.157L26.762,21.63a.365.365,0,0,1,.2-.622l2.165-.315.969-1.96a.379.379,0,0,1,.654,0l.969,1.962,2.165.315a.365.365,0,0,1,.2.622L32.52,23.159l.373,2.155a.365.365,0,0,1-.36.426Zm-2.106-1.837a.365.365,0,0,1,.17.042l1.452.763-.277-1.617a.365.365,0,0,1,.1-.323l1.175-1.145-1.623-.236a.365.365,0,0,1-.275-.2l-.726-1.471L29.7,21.19a.365.365,0,0,1-.275.2l-1.623.236,1.175,1.145a.365.365,0,0,1,.1.323L28.8,24.711l1.452-.763A.365.365,0,0,1,30.427,23.905Z" transform="translate(-10.882 -10.514)" fill="#717070"/>
        <path id="Path_30" data-name="Path 30" d="M40.168,57.326h-.033a.365.365,0,0,1-.309-.236l-2.266-6.075a.365.365,0,1,1,.693-.228l1.991,5.335L41.7,53.688a.365.365,0,0,1,.427-.159l2.7.885-1.878-5.022a.365.365,0,1,1,.683-.255l2.143,5.734a.365.365,0,0,1-.455.474l-3.142-1.031-1.7,2.835A.365.365,0,0,1,40.168,57.326Z" transform="translate(-17.796 -29.794)" fill="#717070"/>
        <path id="Path_31" data-name="Path 31" d="M19.449,57.325a.365.365,0,0,1-.313-.178l-1.7-2.835L14.3,55.343a.365.365,0,0,1-.455-.474l2.143-5.734a.365.365,0,1,1,.683.255l-1.878,5.023,2.7-.885a.365.365,0,0,1,.427.159l1.454,2.433,2-5.362a.365.365,0,1,1,.683.255L19.79,57.088a.365.365,0,0,1-.309.236Z" transform="translate(-2.731 -29.794)" fill="#717070"/>
    </g>
</svg>
