<svg xmlns="http://www.w3.org/2000/svg" width="22.556" height="28.585" viewBox="0 0 22.556 28.585">
    <g id="advertisement" transform="translate(0)">
        <path id="Path_14" data-name="Path 14" d="M87.164,105.613a.558.558,0,1,0,.395-.164A.563.563,0,0,0,87.164,105.613Zm0,0" transform="translate(-82.143 -99.562)" fill="#717070"/>
        <path id="Path_15" data-name="Path 15" d="M20.584,105.452H7.649a.558.558,0,1,0,0,1.117H20.584a.856.856,0,0,1,.855.855v11.458H17.728a.558.558,0,1,0,0,1.117h3.711v.261a.856.856,0,0,1-.855.855H4.278a.558.558,0,0,0-.36.131l-2.8,2.359V107.424a.856.856,0,0,1,.855-.855H3.183a.558.558,0,1,0,0-1.117H1.972A1.974,1.974,0,0,0,0,107.424v17.382a.558.558,0,0,0,.918.427l3.564-3h16.1a1.974,1.974,0,0,0,1.972-1.972V107.424a1.974,1.974,0,0,0-1.972-1.972Zm0,0" transform="translate(0 -99.565)" fill="#717070"/>
        <path id="Path_16" data-name="Path 16" d="M192.558,3.906a.558.558,0,0,0,.558-.558V.558a.558.558,0,1,0-1.117,0v2.79A.558.558,0,0,0,192.558,3.906Zm0,0" transform="translate(-181.28)" fill="#717070"/>
        <path id="Path_17" data-name="Path 17" d="M267.929,22.135a.556.556,0,0,0,.395-.164l1.952-1.952a.558.558,0,0,0-.79-.79l-1.952,1.952a.558.558,0,0,0,.395.953Zm0,0" transform="translate(-252.443 -18.002)" fill="#717070"/>
        <path id="Path_18" data-name="Path 18" d="M83.784,21.905a.558.558,0,0,0,.789-.79l-1.952-1.952a.558.558,0,0,0-.789.789Zm0,0" transform="translate(-77.109 -17.939)" fill="#717070"/>
        <path id="Path_19" data-name="Path 19" d="M192.558,442.031a.558.558,0,0,0-.558.558v2.79a.558.558,0,0,0,1.117,0v-2.79A.558.558,0,0,0,192.558,442.031Zm0,0" transform="translate(-181.28 -417.352)" fill="#717070"/>
        <path id="Path_20" data-name="Path 20" d="M268.324,438.136a.558.558,0,1,0-.789.79l1.952,1.952a.558.558,0,0,0,.79-.79Zm0,0" transform="translate(-252.443 -413.52)" fill="#717070"/>
        <path id="Path_21" data-name="Path 21" d="M83.784,438.2l-1.952,1.952a.558.558,0,1,0,.789.789l1.952-1.952a.558.558,0,1,0-.789-.79Zm0,0" transform="translate(-77.109 -413.583)" fill="#717070"/>
        <path id="Path_22" data-name="Path 22" d="M219.122,204.782a2.656,2.656,0,0,0-2.653-2.653h-1.211a.558.558,0,0,0-.558.558V207.6a.559.559,0,0,0,.558.558h1.211a2.656,2.656,0,0,0,2.653-2.653Zm-1.117.723a1.538,1.538,0,0,1-1.537,1.537h-.653v-3.8h.653a1.538,1.538,0,0,1,1.537,1.537Zm0,0" transform="translate(-202.712 -190.844)" fill="#717070"/>
        <path id="Path_23" data-name="Path 23" d="M110.582,206.019l-.472,1.4a.558.558,0,1,0,1.058.356l.349-1.036h1.551l.349,1.036a.558.558,0,1,0,1.058-.356l-1.653-4.913a.558.558,0,0,0-1.058,0l-1.181,3.508Zm1.71-1.581.4,1.188h-.8Zm0,0" transform="translate(-103.935 -190.844)" fill="#717070"/>
        <path id="Path_24" data-name="Path 24" d="M268.2,346.164A.558.558,0,1,0,268.6,346,.563.563,0,0,0,268.2,346.164Zm0,0" transform="translate(-253.074 -326.683)" fill="#717070"/>
    </g>
</svg>
