<svg xmlns="http://www.w3.org/2000/svg" width="19.786" height="18.236" viewBox="0 0 19.786 18.236">
    <g id="like" transform="translate(0 -20.052)">
        <path id="Path_37" data-name="Path 37" d="M17.018,20.052H2.768A2.771,2.771,0,0,0,0,22.82v9.293a2.771,2.771,0,0,0,2.768,2.768h.62a.29.29,0,1,0,0-.58h-.62A2.191,2.191,0,0,1,.58,32.113V22.82a2.191,2.191,0,0,1,2.188-2.188h14.25a2.191,2.191,0,0,1,2.188,2.188v9.293A2.191,2.191,0,0,1,17.018,34.3H14a1.211,1.211,0,0,0-.862.357l-2.915,2.915a.46.46,0,0,1-.651,0L6.653,34.659a1.211,1.211,0,0,0-.862-.357H4.627a.29.29,0,1,0,0,.58H5.791a.635.635,0,0,1,.452.187l2.915,2.915a1.04,1.04,0,0,0,1.47,0l2.915-2.915A.635.635,0,0,1,14,34.881h3.023a2.771,2.771,0,0,0,2.768-2.768V22.82A2.771,2.771,0,0,0,17.018,20.052Z" transform="translate(0 0)" fill="#717070"/>
        <path id="Path_38" data-name="Path 38" d="M123.363,108.785a2.543,2.543,0,0,1,1.907.865.29.29,0,0,0,.435,0,2.538,2.538,0,0,1,3.274-.467.29.29,0,0,0,.312-.488,3.117,3.117,0,0,0-3.8.348,3.119,3.119,0,0,0-5.246,2.284c0,1.41.868,2.869,2.579,4.336a15.768,15.768,0,0,0,2.53,1.761.29.29,0,0,0,.274,0,15.767,15.767,0,0,0,2.53-1.761c1.712-1.467,2.579-2.926,2.579-4.336a3.125,3.125,0,0,0-.4-1.523.29.29,0,0,0-.506.283,2.543,2.543,0,0,1,.322,1.24c0,2.688-3.882,5.058-4.667,5.509-.785-.451-4.667-2.821-4.667-5.509a2.545,2.545,0,0,1,2.542-2.542Z" transform="translate(-115.594 -84.746)" fill="#717070"/>
    </g>
</svg>
